<?xml version="1.0" encoding="UTF-8"?>
<svg xmlns="http://www.w3.org/2000/svg" xmlns:xlink="http://www.w3.org/1999/xlink" width="5112" height="5112" viewBox="0 0 2112 2112">
<rect x="-211.2" y="-211.2" width="5112" height="5112" fill="rgb(100%, 100%, 100%)" fill-opacity="0"/>

<path fill-rule="nonzero" fill="rgb(0%, 0%, 0%)" fill-opacity="1" d="M 1249.160156 1577.152344 L 862.867188 1577.152344 C 681.996094 1577.152344 534.847656 1430.003906 534.847656 1249.15625 L 534.847656 862.871094 C 534.847656 682 681.996094 534.851562 862.867188 534.851562 L 1249.160156 534.851562 C 1430 534.851562 1577.148438 682 1577.148438 862.871094 L 1577.148438 1249.15625 C 1577.148438 1430.003906 1430 1577.152344 1249.160156 1577.152344 Z M 862.867188 578.269531 C 705.933594 578.269531 578.277344 705.929688 578.277344 862.871094 L 578.277344 1249.15625 C 578.277344 1406.066406 705.933594 1533.722656 862.867188 1533.722656 L 1249.160156 1533.722656 C 1406.070312 1533.722656 1533.730469 1406.066406 1533.730469 1249.15625 L 1533.730469 862.871094 C 1533.730469 705.929688 1406.070312 578.269531 1249.160156 578.269531 L 862.867188 578.269531 "/>

<path fill-rule="nonzero" fill="rgb(0%, 0%, 0%)" fill-opacity="1" d="M 1294.859375 1034.261719 L 1077.738281 1034.261719 L 1077.738281 817.140625 L 1034.289062 817.140625 L 1034.289062 1034.261719 L 817.136719 1034.261719 L 817.136719 1077.738281 L 1034.289062 1077.738281 L 1034.289062 1294.863281 L 1077.738281 1294.863281 L 1077.738281 1077.738281 L 1294.859375 1077.738281 L 1294.859375 1034.261719 "/>
</svg>
