<svg version="1.1" id="Layer_1" xmlns="http://www.w3.org/2000/svg" xmlns:xlink="http://www.w3.org/1999/xlink" x="0px" y="0px"
	 width="100%" viewBox="0 0 512 512" enable-background="new 0 0 512 512" xml:space="preserve">
<path fill="#00000000" opacity="1.000000" stroke="none" 
	d="
M286.000000,513.000000 
	C190.689804,513.000000 95.879608,513.000000 1.034703,513.000000 
	C1.034703,342.398102 1.034703,171.796219 1.034703,1.097158 
	C171.560211,1.097158 342.120514,1.097158 512.840393,1.097158 
	C512.840393,171.666550 512.840393,342.333252 512.840393,513.000000 
	C437.462860,513.000000 361.981415,513.000000 286.000000,513.000000 
M409.886932,486.977448 
	C416.635254,486.618225 423.584656,487.175446 430.098328,485.746521 
	C464.584198,478.181305 486.948914,450.230164 486.997009,415.337280 
	C487.015137,402.188141 486.881958,389.037598 487.029724,375.890076 
	C487.216370,359.281128 474.800781,346.754974 458.047241,346.968109 
	C446.398560,347.116302 434.746063,346.964783 423.011017,346.019897 
	C423.007263,274.365936 423.064148,202.711884 422.911499,131.058243 
	C422.895142,123.383781 422.585083,115.491043 420.819611,108.078651 
	C414.555115,81.777390 400.784180,60.284767 378.054474,45.007088 
	C360.666321,33.319733 341.620789,27.809040 320.553131,27.895828 
	C256.733063,28.158747 192.911057,27.949682 128.608383,27.196747 
	C123.452133,27.131321 118.293610,26.935499 113.140053,27.025072 
	C98.062721,27.287125 82.889351,26.697678 67.933800,28.216337 
	C44.453953,30.600595 27.688236,50.537857 27.177908,73.943748 
	C26.470280,106.398590 26.959995,138.880478 27.024530,171.350632 
	C27.043915,181.103928 34.082714,187.990753 43.738850,187.996307 
	C65.052658,188.008560 86.366547,188.021255 107.680191,187.960907 
	C109.430153,187.955963 111.178535,187.396759 112.991425,188.018539 
	C112.994339,265.746033 112.943863,343.473602 113.043022,421.200989 
	C113.064079,437.703278 119.664795,451.898834 130.532913,463.898315 
	C146.678696,481.724884 167.406830,488.290039 191.944946,486.984497 
	C263.123199,486.989685 334.301453,486.995636 405.479706,486.993042 
	C406.639984,486.993011 407.800293,486.888428 409.886932,486.977448 
z"/>
<path fill="#F9CD16" opacity="1.000000" stroke="none" 
	d="
M129.089798,27.924511 
	C192.911057,27.949682 256.733063,28.158747 320.553131,27.895828 
	C341.620789,27.809040 360.666321,33.319733 378.054474,45.007088 
	C400.784180,60.284767 414.555115,81.777390 420.819611,108.078651 
	C422.585083,115.491043 422.895142,123.383781 422.911499,131.058243 
	C423.064148,202.711884 423.007263,274.365936 422.665527,346.653809 
	C419.851654,347.516144 417.383453,347.942200 414.914948,347.943909 
	C358.774475,347.982635 302.633972,347.960419 246.493454,347.985443 
	C231.206497,347.992249 220.008377,359.181671 219.985062,374.439209 
	C219.949417,397.761627 219.866562,421.084778 220.006653,444.406372 
	C220.119690,463.219849 212.590225,477.156647 194.719635,485.066467 
	C193.272675,485.684418 192.147461,486.262115 191.022232,486.839783 
	C167.406830,488.290039 146.678696,481.724884 130.532913,463.898315 
	C119.664795,451.898834 113.064079,437.703278 113.043022,421.200989 
	C112.943863,343.473602 112.994339,265.746033 112.978897,187.083649 
	C112.976700,144.484375 113.031517,102.819939 112.959778,61.155716 
	C112.945442,52.829796 110.177887,45.252834 103.986298,39.616100 
	C99.105827,35.173000 93.441559,31.590862 88.525269,27.924511 
	C101.446938,27.924511 115.268372,27.924511 129.089798,27.924511 
M341.354309,191.007950 
	C337.773956,189.922272 334.198456,187.911087 330.612488,187.892197 
	C288.657776,187.671204 246.701355,187.713058 204.745804,187.828979 
	C201.852402,187.836975 198.711349,188.465439 196.119736,189.709824 
	C189.602432,192.839127 186.491913,200.243134 188.116608,207.436966 
	C189.750778,214.672775 196.352081,219.714813 204.848419,219.728470 
	C246.637695,219.795609 288.427124,219.762939 330.216522,219.755188 
	C337.747406,219.753799 343.553986,216.688126 346.437317,209.556519 
	C349.243469,202.615768 347.358856,196.525452 341.354309,191.007950 
M332.086487,144.984329 
	C341.810638,143.738022 348.244171,136.799835 347.668457,128.180084 
	C347.071442,119.241005 340.109161,113.039009 330.442047,113.014389 
	C311.445251,112.966011 292.448273,112.999260 273.451355,112.999466 
	C250.455109,112.999710 227.458679,112.946678 204.462708,113.026070 
	C194.220947,113.061424 187.306992,120.289024 187.826660,130.099060 
	C188.291245,138.869324 195.334167,144.981796 205.189987,144.988159 
	C247.183105,145.015289 289.176270,144.998489 332.086487,144.984329 
M271.324829,262.838776 
	C269.679504,262.639832 268.034515,262.270966 266.388794,262.267731 
	C245.929337,262.227570 225.469391,262.169586 205.010345,262.269836 
	C194.724899,262.320251 187.785431,268.943359 187.789688,278.323181 
	C187.793945,287.740051 194.678558,294.195129 205.037537,294.230408 
	C225.496857,294.300079 245.956726,294.296478 266.416077,294.230225 
	C275.591888,294.200500 281.713074,289.371002 283.335388,281.183289 
	C284.890045,273.336761 280.652191,266.460358 271.324829,262.838776 
z"/>
<path fill="#FAA701" opacity="1.000000" stroke="none" 
	d="
M195.041367,485.026184 
	C212.590225,477.156647 220.119690,463.219849 220.006653,444.406372 
	C219.866562,421.084778 219.949417,397.761627 219.985062,374.439209 
	C220.008377,359.181671 231.206497,347.992249 246.493454,347.985443 
	C302.633972,347.960419 358.774475,347.982635 414.914948,347.943909 
	C417.383453,347.942200 419.851654,347.516144 422.707642,347.117462 
	C434.746063,346.964783 446.398560,347.116302 458.047241,346.968109 
	C474.800781,346.754974 487.216370,359.281128 487.029724,375.890076 
	C486.881958,389.037598 487.015137,402.188141 486.997009,415.337280 
	C486.948914,450.230164 464.584198,478.181305 430.098328,485.746521 
	C423.584656,487.175446 416.635254,486.618225 409.068970,486.702881 
	C406.102356,486.285522 403.953705,486.018707 401.804993,486.018005 
	C335.144043,485.996002 268.483063,486.009552 201.822128,485.959015 
	C199.561646,485.957306 197.301605,485.350800 195.041367,485.026184 
z"/>
<path fill="#FAA701" opacity="1.000000" stroke="none" 
	d="
M128.849091,27.560629 
	C115.268372,27.924511 101.446938,27.924511 88.525269,27.924511 
	C93.441559,31.590862 99.105827,35.173000 103.986298,39.616100 
	C110.177887,45.252834 112.945442,52.829796 112.959778,61.155716 
	C113.031517,102.819939 112.976700,144.484375 112.947006,186.621918 
	C111.178535,187.396759 109.430153,187.955963 107.680191,187.960907 
	C86.366547,188.021255 65.052658,188.008560 43.738850,187.996307 
	C34.082714,187.990753 27.043915,181.103928 27.024530,171.350632 
	C26.959995,138.880478 26.470280,106.398590 27.177908,73.943748 
	C27.688236,50.537857 44.453953,30.600595 67.933800,28.216337 
	C82.889351,26.697678 98.062721,27.287125 113.140053,27.025072 
	C118.293610,26.935499 123.452133,27.131321 128.849091,27.560629 
z"/>
<path fill="#F8B509" opacity="1.000000" stroke="none" 
	d="
M194.719635,485.066467 
	C197.301605,485.350800 199.561646,485.957306 201.822128,485.959015 
	C268.483063,486.009552 335.144043,485.996002 401.804993,486.018005 
	C403.953705,486.018707 406.102356,486.285522 408.605804,486.630463 
	C407.800293,486.888428 406.639984,486.993011 405.479706,486.993042 
	C334.301453,486.995636 263.123199,486.989685 191.483582,486.912140 
	C192.147461,486.262115 193.272675,485.684418 194.719635,485.066467 
z"/>
<path fill="#FFFEFC" opacity="1.000000" stroke="none" 
	d="
M341.646240,191.239380 
	C347.358856,196.525452 349.243469,202.615768 346.437317,209.556519 
	C343.553986,216.688126 337.747406,219.753799 330.216522,219.755188 
	C288.427124,219.762939 246.637695,219.795609 204.848419,219.728470 
	C196.352081,219.714813 189.750778,214.672775 188.116608,207.436966 
	C186.491913,200.243134 189.602432,192.839127 196.119736,189.709824 
	C198.711349,188.465439 201.852402,187.836975 204.745804,187.828979 
	C246.701355,187.713058 288.657776,187.671204 330.612488,187.892197 
	C334.198456,187.911087 337.773956,189.922272 341.646240,191.239380 
z"/>
<path fill="#FFFFFE" opacity="1.000000" stroke="none" 
	d="
M331.627960,144.991028 
	C289.176270,144.998489 247.183105,145.015289 205.189987,144.988159 
	C195.334167,144.981796 188.291245,138.869324 187.826660,130.099060 
	C187.306992,120.289024 194.220947,113.061424 204.462708,113.026070 
	C227.458679,112.946678 250.455109,112.999710 273.451355,112.999466 
	C292.448273,112.999260 311.445251,112.966011 330.442047,113.014389 
	C340.109161,113.039009 347.071442,119.241005 347.668457,128.180084 
	C348.244171,136.799835 341.810638,143.738022 331.627960,144.991028 
z"/>
<path fill="#FFFEFC" opacity="1.000000" stroke="none" 
	d="
M271.726715,262.918823 
	C280.652191,266.460358 284.890045,273.336761 283.335388,281.183289 
	C281.713074,289.371002 275.591888,294.200500 266.416077,294.230225 
	C245.956726,294.296478 225.496857,294.300079 205.037537,294.230408 
	C194.678558,294.195129 187.793945,287.740051 187.789688,278.323181 
	C187.785431,268.943359 194.724899,262.320251 205.010345,262.269836 
	C225.469391,262.169586 245.929337,262.227570 266.388794,262.267731 
	C268.034515,262.270966 269.679504,262.639832 271.726715,262.918823 
z"/>
</svg>